# xmcd
#
# Track frame offsets: 
#        150
#        9362
#        46810
#        55407
#        84040
#        101837
#        115805
#        143305
#        171820
#        177087
#        185325
#        223635
#
# Disc length: 3256 seconds
#
# Revision: 1
# Processed by: cddbd v1.5.1PL0 Copyright (c) Steve Scherf et al.
# Submitted via: ExactAudioCopy v0.95b3
#
DISCID=8f0cb60c
DTITLE=Ravi Coltrane - In Flux
DYEAR=2005
DGENRE=Jazz
TTITLE0=The Message Part I
TTITLE1=Coincide
TTITLE2=Variations Part II
TTITLE3=Away
TTITLE4=Leaving Avignon
TTITLE5=Blending Times
TTITLE6=Dear Alice
TTITLE7=Angular Realms
TTITLE8=Scram Vamp
TTITLE9=Variations I
TTITLE10=United
TTITLE11=For Zoe
EXTD=YEAR: 2005
EXTT0=
EXTT1=
EXTT2=
EXTT3=
EXTT4=
EXTT5=
EXTT6=
EXTT7=
EXTT8=
EXTT9=
EXTT10=
EXTT11=
PLAYORDER=
